<?xml version="1.0" standalone="no"?>
<!DOCTYPE svg PUBLIC "-//W3C//DTD SVG 20010904//EN"
 "http://www.w3.org/TR/2001/REC-SVG-20010904/DTD/svg10.dtd">
<svg version="1.0" xmlns="http://www.w3.org/2000/svg"
 width="836.000000pt" height="836.000000pt" viewBox="0 0 836.000000 836.000000"
 preserveAspectRatio="xMidYMid meet">
<metadata>
Created by potrace 1.14, written by Peter Selinger 2001-2017
</metadata>
<g transform="translate(0.000000,836.000000) scale(0.100000,-0.100000)"
fill="#a8cce2" stroke="none">
<path d="M1920 7846 c-142 -61 -413 -216 -476 -271 -7 -5 -24 -19 -40 -30
-107 -76 -293 -250 -385 -360 -19 -22 -36 -42 -39 -45 -3 -3 -25 -34 -50 -70
-24 -36 -48 -66 -52 -68 -4 -2 -8 -8 -8 -14 0 -5 -13 -28 -28 -51 -31 -45
-125 -228 -134 -262 -4 -11 -16 -47 -28 -80 -13 -33 -27 -75 -31 -92 -5 -18
-13 -50 -19 -70 -47 -176 -64 -343 -57 -558 6 -169 12 -230 36 -365 5 -30 12
-71 15 -90 17 -97 110 -407 147 -487 10 -24 19 -47 19 -53 0 -5 9 -29 19 -52
11 -24 32 -72 48 -108 40 -92 181 -369 242 -473 28 -49 51 -93 51 -98 0 -5 5
-9 10 -9 6 0 10 -5 10 -10 0 -6 17 -36 37 -68 66 -103 222 -336 271 -403 26
-37 62 -88 80 -113 18 -25 29 -46 25 -46 -19 0 -291 276 -403 410 -30 36 -57
67 -60 70 -22 20 -179 233 -229 310 -33 52 -65 100 -69 105 -4 6 -11 17 -15
25 -3 8 -20 38 -37 65 -36 58 -133 251 -173 345 -86 199 -168 499 -183 675 -8
93 -14 126 -23 120 -5 -2 -21 -44 -36 -92 -15 -49 -31 -99 -35 -113 -4 -14
-13 -50 -18 -80 -6 -30 -17 -84 -24 -120 -17 -89 -17 -520 0 -620 47 -276 107
-462 235 -730 33 -68 156 -271 194 -320 7 -8 33 -44 60 -80 26 -36 50 -67 53
-70 3 -3 25 -30 50 -60 114 -140 316 -342 460 -460 30 -25 57 -47 60 -50 3 -3
25 -21 50 -40 25 -19 47 -37 50 -40 18 -19 178 -135 238 -172 147 -91 -259 84
-427 184 -34 21 -65 38 -67 38 -21 0 -341 229 -417 298 -300 274 -467 497
-582 776 -25 61 -50 120 -55 131 -13 26 -5 -381 8 -450 26 -137 44 -222 52
-240 4 -11 13 -40 20 -65 31 -119 158 -418 182 -428 4 -2 8 -8 8 -13 0 -16
120 -190 186 -269 81 -98 211 -222 294 -280 19 -14 37 -28 40 -31 3 -3 25 -19
50 -36 136 -92 278 -164 475 -244 106 -42 311 -99 485 -133 41 -8 86 -17 100
-20 14 -3 -38 -3 -115 0 -344 12 -722 90 -1025 210 -110 43 -339 159 -404 203
-53 37 -56 37 -49 11 3 -11 9 -20 13 -20 4 0 13 -13 20 -30 7 -16 15 -30 19
-30 4 0 15 -15 26 -32 22 -39 228 -247 300 -305 191 -152 417 -263 670 -328
271 -69 586 -74 910 -15 33 6 76 13 95 16 l35 5 -26 -15 c-28 -16 -205 -76
-279 -94 -134 -34 -256 -50 -495 -67 -158 -12 -590 25 -774 66 -24 5 -46 7
-49 5 -5 -6 23 -36 33 -36 4 0 25 -13 48 -28 67 -46 266 -153 342 -184 22 -10
74 -31 115 -48 150 -63 352 -123 505 -150 39 -7 92 -16 118 -21 87 -16 357
-22 482 -10 222 21 441 81 629 173 54 27 101 46 105 43 3 -4 -1 -10 -9 -15 -8
-4 -32 -22 -54 -39 -21 -17 -42 -28 -47 -25 -5 3 -9 1 -9 -5 0 -16 -75 -63
-195 -124 -109 -55 -133 -66 -230 -105 -226 -90 -612 -162 -867 -162 -39 0
-67 -4 -64 -9 7 -10 169 -63 266 -85 219 -52 351 -66 616 -66 127 0 255 4 285
9 30 5 88 14 129 21 104 17 307 71 375 100 11 4 47 18 80 31 153 58 440 228
535 316 35 31 40 41 35 67 -2 17 -10 107 -17 200 -9 132 -9 204 0 330 41 542
186 908 472 1197 189 190 376 297 598 340 80 15 225 7 320 -19 64 -17 208 -83
222 -101 6 -7 48 -31 55 -31 3 0 5 21 5 46 0 157 -131 330 -325 430 l-76 39
-33 82 c-130 323 -406 498 -752 478 -283 -16 -510 65 -626 224 -18 24 -45 67
-59 95 -24 45 -27 48 -34 27 -10 -31 3 -133 27 -211 33 -105 70 -170 142 -247
22 -24 36 -43 32 -43 -15 0 -130 87 -167 127 -20 21 -48 60 -62 87 -22 46 -25
48 -32 27 -10 -34 4 -158 26 -226 23 -68 78 -183 96 -203 7 -7 13 -16 13 -20
0 -4 -39 -25 -87 -47 -118 -54 -303 -166 -303 -182 0 -8 8 -30 18 -51 18 -36
50 -135 70 -217 19 -72 32 -198 31 -285 -2 -134 -12 -148 -28 -34 -47 355
-199 620 -501 874 -36 30 -67 58 -70 61 -14 15 -219 166 -320 234 -63 43 -117
81 -120 84 -3 4 -25 22 -50 41 -25 19 -50 39 -56 45 -7 5 -39 33 -72 60 -95
78 -409 400 -494 505 -78 97 -114 147 -191 260 -214 315 -374 677 -437 988
-43 210 -44 218 -44 462 -1 243 6 319 40 448 8 28 21 78 29 110 30 113 116
303 193 427 75 120 253 318 357 396 41 32 56 50 38 48 -5 0 -42 -15 -83 -33z"/>
<path d="M6355 7849 c346 -286 545 -635 626 -1099 20 -114 18 -468 -4 -603
-21 -134 -66 -313 -110 -443 -225 -657 -728 -1279 -1421 -1757 -66 -46 -121
-87 -123 -92 -2 -6 17 -37 42 -70 26 -33 68 -105 95 -160 49 -99 50 -100 113
-133 213 -109 341 -304 363 -552 6 -70 -9 -226 -22 -239 -3 -3 -18 10 -33 29
-114 151 -235 226 -402 249 -296 41 -694 -193 -924 -544 -138 -210 -225 -453
-286 -795 -25 -140 -31 -400 -11 -500 28 -146 111 -280 227 -368 104 -78 336
-174 548 -228 346 -88 803 -87 1173 1 115 28 265 73 277 84 4 4 -56 11 -133
14 -422 19 -824 133 -1144 323 -65 39 -238 165 -233 171 2 1 52 -22 113 -51
320 -158 674 -221 1040 -185 339 33 699 147 1034 330 104 56 234 138 229 144
-2 1 -53 -5 -114 -16 -480 -82 -916 -72 -1279 31 -105 30 -261 89 -254 96 2 2
47 -6 100 -16 594 -122 1147 -18 1573 295 80 59 225 185 225 196 0 4 26 33 58
66 56 58 159 199 151 207 -2 2 -40 -18 -84 -46 -299 -186 -693 -316 -1128
-372 -107 -14 -456 -32 -397 -20 14 3 81 16 151 29 742 146 1283 532 1564
1117 101 211 178 484 204 730 13 120 15 346 2 333 -5 -6 -23 -46 -41 -90 -195
-494 -626 -928 -1219 -1224 -144 -73 -301 -141 -322 -141 -7 0 39 36 102 81
495 352 866 747 1099 1169 140 253 236 535 276 815 22 158 22 440 0 590 -19
122 -63 303 -94 380 -23 58 -23 58 -42 -95 -58 -496 -316 -1041 -724 -1537
-100 -120 -453 -480 -462 -470 -3 3 14 32 38 64 114 149 287 405 390 578 105
175 123 209 223 408 207 414 326 790 365 1153 18 167 8 491 -19 625 -83 410
-258 728 -568 1030 -205 199 -386 326 -648 454 -182 90 -217 101 -160 54z"/>
</g>
</svg>
